<?xml version="1.0" encoding="iso-8859-1"?>
<!-- Generator: Adobe Illustrator 19.0.0, SVG Export Plug-In . SVG Version: 6.00 Build 0)  -->
<svg version="1.1" id="Capa_1" xmlns="http://www.w3.org/2000/svg" xmlns:xlink="http://www.w3.org/1999/xlink" x="0px" y="0px"
	 viewBox="0 0 60 60" style="enable-background:new 0 0 60 60;" xml:space="preserve">
<path style="fill:#ECF0F1;" d="M0,0v60h60V0H0z M54.06,54.06H6V6h48.06V54.06z"/>
<g>
	<path style="fill:#464F5D;" d="M20,2H2v18c0,0.552,0.448,1,1,1s1-0.448,1-1V4h16c0.552,0,1-0.448,1-1S20.552,2,20,2z"/>
	<path style="fill:#464F5D;" d="M57,40c-0.552,0-1,0.448-1,1v15H41c-0.552,0-1,0.448-1,1s0.448,1,1,1h17V41
		C58,40.448,57.552,40,57,40z"/>
	<path style="fill:#464F5D;" d="M41,2c-0.552,0-1,0.448-1,1s0.448,1,1,1h15v16c0,0.552,0.448,1,1,1s1-0.448,1-1V2H41z"/>
	<path style="fill:#464F5D;" d="M20,56H4V41c0-0.552-0.448-1-1-1s-1,0.448-1,1v17h18c0.552,0,1-0.448,1-1S20.552,56,20,56z"/>
</g>
<path style="fill:#48A0DC;" d="M44.013,23.801c-8.603-4.978-19.174-5.195-27.947-0.646c-0.087,0.633-0.148,1.274-0.148,1.931
	c0,2.111,0.465,4.114,1.297,5.911c2.234,4.823,7.118,8.169,12.783,8.169c5.664,0,10.546-3.344,12.781-8.165
	c0.834-1.798,1.299-3.802,1.299-5.915C44.078,24.652,44.051,24.224,44.013,23.801z"/>
<circle style="fill:#285680;" cx="24.451" cy="26.365" r="3.413"/>
<g>
	<path style="fill:#D1D4D1;" d="M48.25,26.795c-0.058-0.057-0.119-0.113-0.182-0.165c-1.287-1.071-2.646-2.005-4.055-2.82
		c0.038,0.421,0.064,0.845,0.064,1.276c0,2.112-0.465,4.116-1.299,5.915c-2.235,4.821-7.117,8.165-12.781,8.165
		c-5.665,0-10.549-3.346-12.783-8.169c-0.833-1.797-1.297-3.8-1.297-5.911c0-0.646,0.059-1.277,0.144-1.9
		c-1.862,0.966-3.653,2.121-5.317,3.517L7.304,29.59c-1.13,0.948-1.132,2.685-0.004,3.636l3.487,2.939
		c10.802,9.103,26.574,9.132,37.408,0.086c0.064-0.053,0.126-0.11,0.185-0.169L53,31.485L48.25,26.795z"/>
</g>
<rect y="37" style="fill:#FF5364;" width="60" height="2"/>
<circle style="fill:#FFFFFF;" cx="27.587" cy="28.587" r="2.413"/>
<g>
</g>
<g>
</g>
<g>
</g>
<g>
</g>
<g>
</g>
<g>
</g>
<g>
</g>
<g>
</g>
<g>
</g>
<g>
</g>
<g>
</g>
<g>
</g>
<g>
</g>
<g>
</g>
<g>
</g>
</svg>
